<?xml version="1.0" encoding="UTF-8"?>
<svg viewBox="0 0 49 37" version="1.1" xmlns="http://www.w3.org/2000/svg" xmlns:xlink="http://www.w3.org/1999/xlink">
    <title>Group 20 Copy 2</title>
    <g id="Page-1" stroke="none" stroke-width="1" fill="none" fill-rule="evenodd">
        <g id="Create-Cluster-(default-veiw)-Copy-4" transform="translate(-95.000000, -1296.000000)">
            <g id="Group-20-Copy-2" transform="translate(95.331593, 1296.331593)">
                <rect id="Rectangle" fill="#EFEFEF" x="0" y="0" width="48" height="36" rx="8"></rect>
                <text id="powered-by" opacity="0.505905878" font-family="Helvetica-Bold, Helvetica" font-size="6.5" font-weight="bold" letter-spacing="-0.334027417" fill="#061923">
                    <tspan x="7.7794625" y="11.6684074">powered by</tspan>
                </text>
                <g id="Group-21" transform="translate(6.936703, 15.188407)" fill-rule="nonzero">
                    <g id="Group" transform="translate(9.172842, 2.459733)" fill="#061923">
                        <g transform="translate(0.000000, 0.604484)">
                            <g transform="translate(1.939468, 1.252814)">
                                <path d="M4.15120092,6.71109746 L4.15120092,6.32343405 C3.87743131,6.74921046 3.50859144,7.01542167 3.04498158,7.12175705 C2.58092651,7.22793713 2.1213547,7.19012232 1.66521007,7.00770795 C1.20902402,6.82514656 0.817353619,6.48686129 0.490447375,5.99256223 C0.163437591,5.49872911 0,4.84875794 0,4.04270052 C0,3.09992913 0.216667408,2.33584674 0.650012577,1.75022557 C1.08351306,1.16518422 1.77901067,0.872270099 2.73706454,0.872270099 C3.4668649,0.872270099 4.14323871,1.06995866 4.76706607,1.46533578 C5.39038608,1.86086821 5.7022687,2.59070998 5.7022687,3.65489216 L5.7022687,6.87104576 C5.7022687,7.93512439 5.39037573,8.66135262 4.76706607,9.04921275 C4.14329048,9.43703147 3.46691667,9.63070268 2.73706454,9.63070268 C1.33782754,9.63070268 0.471095785,8.97682807 0.136869276,7.66903743 L1.80199651,7.66903743 C1.92344871,7.88185316 2.10987214,8.0454357 2.36080087,8.15962976 C2.61157429,8.27367886 2.86251338,8.30376753 3.11344211,8.25068164 C3.36437084,8.19728512 3.59246904,8.04897573 3.79771601,7.80576071 C4.00296297,7.5625457 4.12040818,7.19772318 4.15111809,6.71113784 L4.15120092,6.71109746 Z M1.5511092,4.08801989 C1.5511092,5.13729233 1.85497783,5.71887545 2.46347095,5.83297632 C3.07150848,5.94702542 3.51999117,5.8067414 3.80907432,5.41105159 C3.94596431,5.24391763 4.04473093,4.98156846 4.10568482,4.62414903 C4.1663343,4.26719554 4.17019219,3.91348283 4.11725954,3.56348721 C4.06386302,3.21394717 3.9382392,2.90205419 3.74086126,2.62858485 C3.54301739,2.35481523 3.2539653,2.21792525 2.87432623,2.21792525 C2.35703098,2.21792525 2.00749094,2.40821071 1.82495025,2.78799474 C1.64223355,3.1684 1.55118064,3.60143455 1.55118064,4.0880406 L1.5511092,4.08801989 Z" id="Shape"></path>
                                <path d="M11.2669744,7.07597175 L10.4686514,7.07597175 C10.2405636,7.07597175 10.0541401,7.00390183 9.90984705,6.85930434 C9.76524335,6.71485595 9.69317964,6.52843252 9.69317964,6.30049998 L9.69317964,3.1985508 C9.69317964,2.83357296 9.58268195,2.56782768 9.36261844,2.40022779 C9.14193369,2.23309383 8.89471168,2.14945437 8.62108702,2.14945437 C8.34762803,2.14945437 8.1041024,2.23309797 7.89128667,2.40022779 C7.67816032,2.56782768 7.5719906,2.83357296 7.5719906,3.1985508 L7.5719906,7.07590962 L5.97551026,7.07590962 L5.97551026,3.51776403 C5.97551026,2.48379477 6.24527288,1.79227309 6.78509839,1.44220499 C7.32461329,1.09250963 7.92155136,0.902690096 8.57561234,0.871980188 C9.24445881,0.871980188 9.86023077,1.04682787 10.4230732,1.39653358 C10.985429,1.74653955 11.2670779,2.45367504 11.2670779,3.51775368 L11.2670779,7.07589927 L11.2669744,7.07597175 Z" id="Path"></path>
                                <polygon id="Path" points="11.6552487 1.53617772 13.2520397 1.53617772 13.2520397 2.31181515 13.2520397 7.076096 11.6552487 7.076096 11.6552487 1.53619843"></polygon>
                                <path d="M16.1913278,7.07597175 C15.68946,7.10621883 15.1458863,7.0988116 14.5605758,7.0531319 C13.9750685,7.00760648 13.682465,6.63522452 13.682465,5.93562673 L13.682465,0 L14.5034736,0 C14.7010068,0 14.8758545,0.0762363626 15.0281719,0.228087849 C15.1798681,0.380405264 15.2562598,0.562821703 15.2562598,0.775627076 L15.2562598,0.989830236 L16.1914831,0.989830236 L16.1914831,1.30897099 C16.1914831,1.53721415 16.115226,1.72363758 15.9633746,1.86793066 C15.8113678,2.01268967 15.628796,2.08459807 15.4159906,2.08459807 L15.2562701,2.08459807 L15.2562701,5.5021366 C15.2562701,5.76093436 15.4079663,5.88995532 15.7124562,5.88995532 L16.1914831,5.88995532 L16.1914831,7.07590031 L16.1913287,7.07590031 L16.1913278,7.07597175 Z" id="Path"></path>
                                <path d="M20.548283,5.20583569 L21.6887741,5.20583569 C21.5213295,5.84442782 21.2020334,6.33120989 20.7308858,6.66553994 C20.2592724,7.01554592 19.6663931,7.19009333 18.9519684,7.19009333 C18.0851331,7.19009333 17.4082933,6.90906557 16.9218633,6.34624387 C16.4351226,5.79885995 16.1920629,5.01586084 16.1920629,3.99692557 C16.1920629,3.0239102 16.4277195,2.26335852 16.8991777,1.71615062 C17.3856077,1.15363953 18.0624475,0.872145852 18.9289722,0.872145852 C19.8414892,0.872145852 20.5484383,1.14576016 21.0501923,1.69330974 C21.5366223,2.25597613 21.7801479,3.03891312 21.7801479,4.04262804 L21.7801479,4.20204829 L21.7801479,4.29356298 C21.7801479,4.36979935 21.7721231,4.42288421 21.7573081,4.45298323 L17.8111988,4.45298323 C17.8263229,4.92459671 17.9403647,5.27414711 18.1533358,5.50225567 C18.350869,5.74578131 18.6473242,5.8672335 19.0430119,5.8672335 C19.3013541,5.8672335 19.5218836,5.81414554 19.7042897,5.70781326 C19.7498151,5.6926892 19.7917912,5.66599146 19.8299145,5.627719 C19.8675699,5.58990937 19.9095459,5.54793329 19.9552287,5.50224946 C19.9701985,5.45672404 20.0272987,5.39606938 20.1263697,5.31983302 C20.2249831,5.24375093 20.3660333,5.20578392 20.5482944,5.20578392 L20.548283,5.20583569 Z M17.8111978,3.42650404 L20.1376441,3.42650404 C20.1070875,3.01615507 20.0009095,2.71198616 19.8185034,2.51414229 C19.6206595,2.30132657 19.3396318,2.19484622 18.9744986,2.19484622 C18.6399201,2.19484622 18.3663058,2.30132657 18.15349,2.51414229 C17.9403637,2.7274136 17.826325,3.03159285 17.8111978,3.42650404 L17.8111978,3.42650404 Z" id="Shape"></path>
                            </g>
                            <path d="M0.000144955735,0 L0.82130884,0 C1.03412457,0 1.21653065,0.0762363626 1.3685478,0.228087849 C1.52039929,0.380405264 1.59679096,0.562821703 1.59679096,0.775627076 L1.59679096,8.32885626 L0,8.32885626 L0,0 L0.000154326088,0 L0.000144955735,0 Z" id="Path"></path>
                            <path d="M13.5946134,1.25277166 L14.4157773,1.25277166 C14.6285931,1.25277166 14.8109991,1.32900802 14.9630163,1.4808595 C15.1148678,1.63317692 15.1912594,1.81559336 15.1912594,2.02839873 L15.1912594,2.50727036 L13.5944685,2.50727036 L13.5944685,1.25277166 L13.5946229,1.25277166 L13.5946134,1.25277166 Z" id="Path"></path>
                        </g>
                        <g transform="translate(2.518266, 0.000000)">
                            <g transform="translate(0.000000, 0.450520)" id="Shape">
                                <path d="M1.52118619,1.48998136 L1.26761719,1.48998136 L1.26761719,1.31050545 C1.1396834,1.45109181 0.967299973,1.52146782 0.750632565,1.52146782 C0.548160466,1.52146782 0.374544911,1.45371965 0.229630592,1.31806386 C0.076536628,1.1750029 0,0.99259682 0,0.770824899 C0,0.541649882 0.0805570789,0.352917515 0.242293511,0.2047624 C0.391059511,0.0684936555 0.566683738,0.000126318569 0.769466457,0.000126318569 C0.98105006,0.000126318569 1.14725216,0.0729676108 1.26762755,0.218491779 L1.26762755,0.0351538365 L1.52118619,0.0351538365 L1.52118619,1.48999172 L1.52118619,1.48998136 Z M1.26761719,0.770824899 C1.26761719,0.630238544 1.220548,0.51032909 1.1264096,0.411251845 C1.03242651,0.312021361 0.915913165,0.262641155 0.776869553,0.262641155 C0.633653287,0.262641155 0.511124275,0.314493892 0.409116854,0.418199366 C0.312818618,0.515423248 0.264823774,0.619128723 0.264823774,0.729626409 C0.264823774,0.875151612 0.309423547,0.999544341 0.398928536,1.10231796 C0.491831702,1.21034104 0.61035683,1.26435776 0.754339291,1.26435776 C0.892306088,1.26435776 1.01237085,1.21651719 1.11453358,1.12068592 C1.21654204,1.02454196 1.26762755,0.908025502 1.26762755,0.770835253 L1.26761719,0.770824899 Z"></path>
                                <path d="M3.33302934,0.729377913 C3.33302934,0.956233638 3.26218429,1.1440445 3.1209798,1.29296581 C2.97715265,1.44528323 2.79242728,1.52136428 2.56725925,1.52136428 C2.35907175,1.52136428 2.1953339,1.45361611 2.07666692,1.31796032 L2.07666692,1.97199024 L1.81168784,1.97199024 L1.81168784,0.0301010938 L2.06540179,0.0301010938 L2.06540179,0.204638153 C2.13068053,0.136889984 2.2035239,0.0858055119 2.28376725,0.0515441885 C2.36401578,0.0171296263 2.45228865,0 2.54859102,0 C2.75276118,0 2.93193682,0.0665139744 3.08595229,0.199541923 C3.25061165,0.341826331 3.33302934,0.518372062 3.33302934,0.729334426 L3.33302934,0.729377913 Z M3.06186893,0.763175378 C3.06186893,0.622744333 3.0123303,0.504067002 2.91325824,0.407298695 C2.81402775,0.31069191 2.69411623,0.262384376 2.55352987,0.262384376 C2.40707281,0.262384376 2.28655247,0.315318069 2.19225877,0.421649313 C2.10506582,0.519491327 2.06155011,0.635852473 2.06155011,0.770578474 C2.06155011,0.894505274 2.09966829,1.00252836 2.17589947,1.09434746 C2.26941974,1.2073094 2.40090184,1.26380072 2.56973385,1.26380072 C2.71032021,1.26380072 2.8274548,1.2156516 2.92128257,1.11950764 C3.01511138,1.02336367 3.06186893,0.904683237 3.06186893,0.763175378 L3.06186893,0.763175378 Z"></path>
                                <path d="M5.07788223,1.48998136 L4.82446854,1.48998136 L4.82446854,1.31050545 C4.69653475,1.45109181 4.5238407,1.52146782 4.30717329,1.52146782 C4.10470119,1.52146782 3.93124095,1.45371965 3.78617132,1.31806386 C3.63323266,1.1750029 3.55669604,0.99259682 3.55669604,0.770824899 C3.55669604,0.541649882 3.63756166,0.352917515 3.79898955,0.2047624 C3.94775555,0.0684936555 4.12353508,0.000126318569 4.32600718,0.000126318569 C4.53759079,0.000126318569 4.7039482,0.0729676108 4.82447889,0.218491779 L4.82447889,0.0351538365 L5.07788223,0.0351538365 L5.07788223,1.48999172 L5.07788223,1.48998136 Z M4.82431323,0.770824899 C4.82431323,0.630238544 4.77708976,0.51032909 4.68310564,0.411251845 C4.58881297,0.312021361 4.47245389,0.262641155 4.33341028,0.262641155 C4.19050463,0.262641155 4.067665,0.314493892 3.96581289,0.418199366 C3.86951465,0.515423248 3.82120919,0.619128723 3.82120919,0.729626409 C3.82120919,0.875151612 3.86611751,0.999544341 3.95546926,1.10231796 C4.04868098,1.21034104 4.16689756,1.26435776 4.31072471,1.26435776 C4.44884681,1.26435776 4.56906689,1.21651719 4.67107431,1.12068592 C4.77323704,1.02454196 4.82432358,0.908025502 4.82432358,0.770835253 L4.82431323,0.770824899 Z"></path>
                            </g>
                            <path d="M6.82324287,1.45986991 C6.73697516,1.62885724 6.63913832,1.75401616 6.52956214,1.83503606 C6.4065672,1.92639649 6.25671403,1.97192605 6.0801683,1.97192605 C5.87785151,1.97192605 5.70037392,1.90078281 5.5479012,1.75849944 C5.38648263,1.60788007 5.30560769,1.42145664 5.30560769,1.19876322 L5.3171824,1.19876322 C5.31625645,1.20138671 5.31455891,1.20555346 5.31208969,1.21126358 C5.31208969,0.982865113 5.38971452,0.795820445 5.54558232,0.650139931 C5.68786673,0.517111983 5.85453476,0.450598008 6.04636297,0.450598008 C6.2253833,0.450598008 6.38217364,0.496277702 6.51643371,0.588098877 C6.65084909,0.679613574 6.75146908,0.809249558 6.81844898,0.976528476 L6.52738822,0.976528476 C6.42784919,0.80090425 6.26951197,0.71294718 6.05222332,0.71294718 C5.91518838,0.71294718 5.80082866,0.761404847 5.70946513,0.858472384 C5.61764189,0.955696267 5.57211957,1.07314147 5.57211957,1.21125323 C5.57211957,1.35353764 5.61980587,1.47299151 5.71549115,1.56959416 C5.81148084,1.66635522 5.93000493,1.71466379 6.0709019,1.71466379 C6.16395934,1.71466379 6.25207586,1.69182394 6.33572568,1.64629852 C6.419215,1.60061883 6.48511291,1.53843075 6.53249273,1.45987509 L6.82324287,1.45987509 L6.82324287,1.45986991 Z" id="Path"></path>
                            <path d="M8.33419892,1.94184773 L8.07184975,1.94184773 L8.07184975,1.1058673 C8.07184975,0.99212882 8.03573817,0.898922282 7.96398197,0.826537601 C7.89191205,0.754159131 7.79901199,0.718048587 7.68527351,0.718048587 C7.57400963,0.718048587 7.48372291,0.751536468 7.41427876,0.818513265 C7.34483254,0.885490063 7.30995205,0.974071477 7.30995205,1.08456916 L7.30995205,1.94199269 L7.04528358,1.94199269 L7.04528358,0 L7.30995205,0 L7.30995205,0.607571609 C7.41134341,0.506334524 7.53850583,0.455720123 7.6917551,0.455720123 C7.85996588,0.455720123 8.00626763,0.513128806 8.13096062,0.627637624 C8.26660813,0.751564424 8.33436458,0.910974316 8.33436458,1.10588801 L8.33436458,1.94186844 L8.33421027,1.94186844 L8.33419892,1.94184773 Z" id="Path"></path>
                            <path d="M10.0532704,1.31667436 L8.824667,1.31667436 C8.84550128,1.44229921 8.90645931,1.54229796 9.00784963,1.61668096 C9.09735773,1.6819597 9.19411775,1.71467725 9.29782323,1.71467725 C9.39659089,1.71467725 9.4890302,1.68705283 9.57529957,1.63180502 C9.66496194,1.57485916 9.72669548,1.50155194 9.76110176,1.41219708 L10.0310197,1.41219708 C9.96064782,1.60386998 9.85092254,1.74847368 9.70200123,1.84630844 C9.57483364,1.93010632 9.43610064,1.9719333 9.28532597,1.9719333 C9.08949077,1.9719333 8.92142495,1.90156143 8.78207072,1.76097093 C8.63391561,1.61111776 8.55984323,1.42623708 8.55984323,1.20617356 C8.55984323,0.977775096 8.63901184,0.791506976 8.79688727,0.647514162 C8.94086973,0.516184266 9.10970175,0.450591796 9.30276208,0.450591796 C9.49937382,0.450591796 9.6685061,0.515407717 9.81002432,0.64519487 C9.97237474,0.793349985 10.0532393,0.99211536 10.0532393,1.24134604 L10.0532393,1.31665675 L10.0532704,1.31667436 Z M9.78613768,1.07330403 C9.75511819,0.965280947 9.69554967,0.877158214 9.6078939,0.809101496 C9.52008282,0.740890505 9.42054896,0.706784491 9.30927473,0.706784491 C9.17023112,0.706784491 9.05526051,0.75230991 8.96405229,0.843519165 C8.90047057,0.907100892 8.85571859,0.9837949 8.82979222,1.07330507 L9.78613768,1.07330507 L9.78613768,1.07330403 Z" id="Shape"></path>
                        </g>
                        <path d="M22.8885354,2.12789407 L22.6875158,2.12789407 L22.6875158,3.25931589 L22.5290401,3.25931589 L22.5290401,2.12789407 L22.3280205,2.12789407 L22.3280205,1.85721429 L22.8883493,1.85721429 L22.8883493,2.12789407 L22.8885341,2.12789407 L22.8885354,2.12789407 Z M23.7299467,3.25931589 L23.5862603,3.25931589 L23.5862603,2.12789407 L23.5829316,2.12789407 L23.3917136,3.25931589 L23.306833,3.25931589 L23.115615,2.12789407 L23.1122864,2.12789407 L23.1122864,3.25931589 L22.9685999,3.25931589 L22.9685999,1.85725312 L23.2006869,1.85725312 L23.349361,2.68697194 L23.4980351,1.85725312 L23.7301221,1.85725312 L23.7301221,3.25931589 L23.7299372,3.25931589 L23.7299467,3.25931589 Z" id="Shape"></path>
                    </g>
                    <g id="Group" fill="#E52529">
                        <path d="M2.23312974,2.36433158 C2.23312974,2.36433158 -2.60010862,5.31117813 1.95442128,8.24259725 C2.83329825,8.8103578 6.00955796,10.4020235 5.91626859,11.8625561 C5.91626859,11.8625561 7.84086659,9.00817061 5.02921197,7.22014162 C2.13610258,5.38044626 1.41153099,3.4234403 2.23311939,2.36433158 L2.23312974,2.36433158 Z" id="Path"></path>
                        <path d="M0.551011623,7.99958931 C0.551011623,7.99958931 -1.1767572,10.6166616 2.21831319,11.1493739 C2.55026183,11.1919671 5.01036773,11.4472165 5.64527385,12.252487 C5.64527385,12.252487 5.58709379,10.8621545 3.58938737,10.0424298 C1.59148318,9.22280863 0.772690357,9.01910441 0.551011623,7.99958931 L0.551011623,7.99958931 Z" id="Path"></path>
                        <path d="M7.22509463,5.24729406 C5.1550232,3.07689255 4.57954893,1.73667324 5.46471077,0 C5.46471077,0 -0.720964597,2.37996609 5.38523361,6.60180187 C7.57230503,8.11420788 7.2062918,9.65570858 7.20763782,9.71255194 C7.55332619,9.35590906 9.29520748,7.41790265 7.22507599,5.24729406 L7.22509463,5.24729406 Z" id="Path"></path>
                    </g>
                </g>
            </g>
        </g>
    </g>
</svg>